<?xml version="1.0" encoding="utf-8"?>
<svg
	xmlns="http://www.w3.org/2000/svg"
	xmlns:xlink="http://www.w3.org/1999/xlink"
	width="111.215px"
	height="62.823px"
	viewBox="0 0 111.215 62.823"
>
	<g>
		<path fill="#F6F5F1" d="M1.296,12.319c0.592,0.096,0.48,0.88,1.121,0.977c1.041,0.176,1.28-0.561,1.425-1.425
			c0.288-1.809-0.592-3.17-1.553-4.674C1.841,6.493,1.601,5.885,1.745,4.988c0.224-1.265,0.833-2.129,2.161-2.129
			c0.112,0,0.224,0,0.352,0.016C4.69,2.923,4.994,3.02,4.914,3.468C4.77,4.252,3.073,2.923,2.705,5.164
			c-0.176,1.024,0.24,1.44,0.784,2.369c0.849,1.473,1.585,2.785,1.297,4.514c-0.224,1.313-0.769,2.081-2.065,2.081
			c-0.128,0-0.256,0-0.384-0.016C1.777,14.016,0.8,13.472,0.8,12.815c0-0.032,0.016-0.08,0.016-0.112
			C0.833,12.511,1.072,12.319,1.296,12.319z"/>
		<path fill="#F6F5F1" d="M8.416,2.939c0-0.288,0.272-0.561,0.56-0.561h2.529c0.096,0,0.416,0.24,0.432,0.32
			c0.016,0.032,0.016,0.048,0.016,0.08c0,0.32-0.432,0.464-0.688,0.464H9.344l0.08,5.314l1.729-0.256h0.08
			c0.752,0,0.464,0.736-0.176,0.832l-1.601,0.24l-0.048,4.178c0.145,0.016,0.688,0.016,0.833,0.016c1.072,0,1.857-0.368,1.905,0.368
			c0.032,0.544-3.553,0.48-3.553,0.177L8.416,2.939z"/>
		<path fill="#F6F5F1" d="M15.648,2.939c0-0.288,0.272-0.561,0.56-0.561h2.529c0.096,0,0.416,0.24,0.432,0.32
			c0.016,0.032,0.016,0.048,0.016,0.08c0,0.32-0.432,0.464-0.688,0.464h-1.921l0.08,5.314l1.729-0.256h0.08
			c0.752,0,0.464,0.736-0.176,0.832l-1.601,0.24l-0.048,4.178c0.144,0.016,0.688,0.016,0.832,0.016c1.072,0,1.857-0.368,1.905,0.368
			c0.032,0.544-3.553,0.48-3.553,0.177L15.648,2.939z"/>
		<path fill="#F6F5F1" d="M30,2.443c0.112-0.32,0.192-0.336,0.528-0.336c0.464,0,0.464,0.208,0.464,0.672
			c0,0.048-0.016,0.256-0.016,0.288l-0.48,10.948c-0.032,0.704-0.928,0.769-0.928,0.305L30,2.443z"/>
		<path fill="#F6F5F1" d="M35.201,2.699c-0.993,0.064-1.44,0.048-1.473-0.224c0.032-0.545,0.032-0.736,1.697-0.641h1.345
			c0.352,0.016,0.944,0.063,0.944,0.528c0,0.144-0.176,0.304-0.32,0.304h-1.345l0.304,10.164c0,0.145-0.32,0.225-0.416,0.225
			s-0.416-0.08-0.416-0.225L35.201,2.699z"/>
		<path fill="#F6F5F1" d="M48.32,2.443c0.112-0.32,0.192-0.336,0.528-0.336c0.464,0,0.464,0.208,0.464,0.672
			c0,0.048-0.016,0.256-0.016,0.288l-0.48,10.948c-0.032,0.704-0.928,0.769-0.928,0.305L48.32,2.443z"/>
		<path fill="#F6F5F1" d="M52.991,2.843c-0.032-0.64,0.849-1.023,1.185-0.096l3.266,8.852c0.016-0.704,0.144-4.642,0.24-6.21
			c0.048-0.961-0.016-1.938,0.192-2.834c0-0.176,0.176-0.176,0.416-0.176c0.384,0.017,0.416,0.032,0.4,0.385
			c-0.048,1.664-0.289,3.329-0.353,4.993c-0.032,0.929-0.192,5.362-0.192,6.291c-0.112,0.336-0.608,0.144-0.736-0.128
			c-0.16-0.336-0.288-0.656-3.682-9.732l-0.112,9.828c0,0.48-0.816,0.433-0.816,0.097L52.991,2.843z"/>
		<path fill="#F6F5F1" d="M70.08,11.135l-0.096,0.096l-0.272,1.809c-0.032,0.24-0.017,0.929-0.48,0.929
			c-0.208,0-0.353-0.416-0.353-0.576c1.665-11.604,1.682-11.637,1.682-11.637c0.08-0.304,0.191-0.752,0.592-0.752
			c0.176,0,0.4,0.08,0.496,0.239l0.128,0.337c0.929,3.665,1.36,7.427,1.793,11.204l0.097,1.04c0,0.017-0.017,0.017-0.017,0.032
			c-0.112,0.305-0.177,0.433-0.48,0.433h-0.048c-0.096,0-0.256,0-0.271-0.112l-0.4-3.041H70.08z M70.32,10.143l2,0.048l-1.072-7.476
			L70.32,10.143z"/>
		<path fill="#F6F5F1" d="M81.009,2.459c0,0.561-0.929,0.448-1.152,0.448H79.76c-1.553,0-2.24,3.218-2.24,5.026
			c0,2.049,0.128,3.505,1.536,4.674c0.688,0.576,1.745-0.017,1.985,0.416c0.32,0.561-0.272,0.752-0.785,0.752
			c-3.633-0.08-4.193-4.897-3.457-8.019c0.385-1.665,1.377-3.89,3.457-3.89C80.593,1.867,81.009,2.091,81.009,2.459z"/>
		<path fill="#F6F5F1" d="M85.584,2.699c-0.993,0.064-1.441,0.048-1.473-0.224c0.031-0.545,0.031-0.736,1.696-0.641h1.345
			c0.352,0.016,0.944,0.063,0.944,0.528c0,0.144-0.177,0.304-0.32,0.304h-1.345l0.305,10.164c0,0.145-0.32,0.225-0.416,0.225
			c-0.097,0-0.416-0.08-0.416-0.225L85.584,2.699z"/>
		<path fill="#F6F5F1" d="M91.52,2.443c0.111-0.32,0.191-0.336,0.527-0.336c0.465,0,0.465,0.208,0.465,0.672
			c0,0.048-0.016,0.256-0.016,0.288l-0.48,10.948c-0.032,0.704-0.929,0.769-0.929,0.305L91.52,2.443z"/>
		<path fill="#F6F5F1" d="M98.607,1.69c2.865,0.32,2.449,7.14,2.289,9.269c-0.111,1.168-0.703,3.201-2.305,3.201
			c-2.833,0-2.961-4.834-2.961-6.707C95.631,5.42,95.775,1.69,98.607,1.69z M96.543,7.389c0,4.69,0.865,5.971,2.001,5.971
			c1.569,0,1.585-4.065,1.585-5.074V8.222c0-1.232-0.336-5.715-1.857-5.715c-1.2,0-1.713,2.674-1.713,3.474
			C96.543,6.493,96.543,6.94,96.543,7.389z"/>
		<path fill="#F6F5F1" d="M104.703,2.843c-0.032-0.64,0.848-1.023,1.184-0.096l3.266,8.852c0.016-0.704,0.145-4.642,0.24-6.21
			c0.049-0.961-0.016-1.938,0.192-2.834c0-0.176,0.176-0.176,0.416-0.176c0.384,0.017,0.416,0.032,0.4,0.385
			c-0.048,1.664-0.288,3.329-0.353,4.993c-0.031,0.929-0.191,5.362-0.191,6.291c-0.112,0.336-0.609,0.144-0.736-0.128
			c-0.16-0.336-0.289-0.656-3.682-9.732l-0.112,9.828c0,0.48-0.816,0.433-0.816,0.097L104.703,2.843z"/>
	</g>
	<g>
		<path fill="none" stroke="#F4F2ED" stroke-width="1.6" stroke-linecap="round" stroke-linejoin="round" stroke-miterlimit="10" d="M58.299,60.837c0,0,1.45-7.503,1.095-15.339c-0.134-2.962,0.201-0.205-0.374-5.631C58.11,31.29,58.7,31.412,58.7,31.412"/>
		<path fill="none" stroke="#F4F2ED" stroke-width="1.6" stroke-linecap="round" stroke-linejoin="round" stroke-miterlimit="10" d="M58.651,61.993c0,0,1.298-0.655,6.686-6.259"/>
		<path fill="none" stroke="#F4F2ED" stroke-width="1.6" stroke-linecap="round" stroke-linejoin="round" stroke-miterlimit="10" d="M58.423,62.023c0,0-1.066-0.986-4.701-7.858"/>
	</g>
</svg>
