<?xml version="1.0" encoding="utf-8"?>
<!-- Generator: Adobe Illustrator 19.1.0, SVG Export Plug-In . SVG Version: 6.00 Build 0)  -->
<svg version="1.1" id="Layer_1" xmlns="http://www.w3.org/2000/svg" xmlns:xlink="http://www.w3.org/1999/xlink" x="0px" y="0px"
	 viewBox="-316 214.5 207.4 166.8" style="enable-background:new -316 214.5 207.4 166.8;" xml:space="preserve">
<style type="text/css">
	.st0{opacity:0.1;enable-background:new    ;}
	.st1{opacity:0.5;fill:#FFFFFF;enable-background:new    ;}
	.st2{fill:#FFFFFF;}
	.st3{opacity:0.1;fill:#FFFFFF;enable-background:new    ;}
</style>
<g class="st0">
</g>
<path class="st1" d="M-194.1,273.9v-10.2c-9.5-0.1-9.8-9.8-9.8-9.9c0-8.7,9.5-9.9,9.6-9.9l0,0c8.6,0,10.9,6.4,11,6.4l-0.3,0.1
	c0,0-0.6-1.6-2.2-3.1c-1.5-1.4-4.1-3.1-8.5-3.1c0,0-2.3,0.3-4.7,1.6c-3.1,1.8-4.6,4.5-4.6,8c0,0,0.1,2.4,1.3,4.8
	c1.6,3.2,4.4,4.8,8.3,4.8h0.2v10c1.1-0.7,5.8-3.5,13.8-3.6c0.1-0.5,0.6-2.2,2.1-4c1.6-1.9,4.6-4.1,10.1-4.1c0,0,2.8,0,5.5,0.9
	c3.6,1.2,5.5,3.5,5.6,6.5c1.5-0.1,11.5-0.4,14.6,2.6c0.2,0.2,0.4,0.4,0.5,0.7l-0.2-7.9h0.1c0.1,0,10-3.5,10-10.6
	c0-0.1-1.9-9.3-10-9.3c0,0-2.3,0.3-4.5,1.2c-3,1.3-4.5,3.1-4.5,5.4h-0.3c0-5.9,9.2-6.9,9.3-6.9l0,0c4.4,0,6.9,2.6,8.3,4.8
	c1.5,2.4,2,4.8,2,4.8c0,7-8.9,10.5-10.1,10.9l0.3,8.8c0,0.1,0,0.1,0,0.2h-0.3v-0.1c0-0.6-0.3-1.1-0.8-1.6c-3.2-3-14.4-2.5-14.5-2.5
	h-0.2v-0.2c0-7.2-10.7-7.3-10.8-7.3c-5.4,0-8.3,2.2-9.9,4c-1.6,2-2,4-2,4v0.1h-0.1c-9.1,0-14,3.6-14,3.7H-194.1z"/>
<path class="st1" d="M-151.3,340.2h-32.3V340c0-0.1-0.1-11.2,6.2-17.6c2.9-3,6.8-4.5,11.5-4.5c0.1,0,7.3,0,11.8,4.4
	c2.3,2.3,3.5,5.4,3.5,9.3h-0.3c0-3.7-1.2-6.8-3.4-9c-4.3-4.2-11.2-4.3-11.6-4.3l0,0c-4.6,0-8.4,1.5-11.2,4.4
	c-5.8,5.9-6.1,15.8-6.1,17.2h32c3.2,0,5.7-0.8,7.2-2.4c1.7-1.7,1.6-3.9,1.6-3.9v-22.5c0-7-2-12.5-6-16.2c-6-5.7-14.7-5.6-15.9-5.6
	v19.4h-0.3V289h0.2c0.1,0,9.8-0.5,16.3,5.7c4.1,3.8,6.1,9.4,6.1,16.5v22.6c0,0.1,0.1,2.3-1.7,4.1
	C-145.4,339.4-147.9,340.2-151.3,340.2z"/>
<path class="st1" d="M-276.7,340.1c0,0-0.4-4.7,2.2-7.7c1.5-1.6,3.6-2.4,6.3-2.4h60.6c0,0,5.9-1.5,5.9-9.1c0-0.2,1.3-16-8.7-27
	c-6.4-7.1-16.1-10.6-28.7-10.6c-0.2,0-16.8-0.6-27.3,9.4c-5.7,5.4-8.5,12.9-8.5,22.4h-0.3c0-9.5,2.9-17.1,8.6-22.6
	c10.6-10.1,27.3-9.4,27.5-9.4c12.7,0,22.4,3.6,28.9,10.7c10.1,11.1,8.8,27.1,8.8,27.3c0,4.1-1.7,6.4-3.1,7.7c-1.5,1.3-3,1.7-3.1,1.7
	h-60.6c-2.6,0-4.7,0.8-6.1,2.3c-2.6,2.9-2.2,7.4-2.2,7.4L-276.7,340.1z"/>
<path class="st1" d="M-293.1,375.3c-0.1,0-12.3-0.5-12.3-7.9v-16.5h0.3v16.5c0,3,2,5.2,6,6.5c3,1,6,1.1,6,1.1c4,0,6.9-1.1,8.8-3.1
	c2.5-2.8,2.2-6.5,2.2-6.5v-17.2c0-4.3-1-7.1-2.9-8.5c-2.2-1.5-5-0.5-5-0.5h-0.1h-11.3c-4.9,0-8.4-1.3-10.4-3.8
	c-2.6-3.2-1.7-7.4-1.7-7.4c0-4.1,1.4-7.5,4.1-10.1c6.8-6.5,19.9-6,20-6v0.3c-0.1,0-13.1-0.5-19.8,5.9c-2.7,2.5-4,5.9-4,9.9
	c0,0.1-0.8,4.1,1.7,7.2c2,2.4,5.4,3.6,10.2,3.6h11.2c0.3-0.1,3-1,5.3,0.5c2,1.4,3.1,4.3,3.1,8.7v17.2c0,0,0.4,3.8-2.2,6.7
	C-286,374.2-289.1,375.3-293.1,375.3z"/>
<path class="st1" d="M-168.1,375.4c-3.6,0-6.3-1-8.1-2.9c-2.6-2.9-2.4-6.8-2.4-6.9v-7c0-4.2-1.1-5.9-2-6.6s-1.9-0.5-1.9-0.5l0,0
	c-3.3,0-5.9-1.7-7.4-4.9c-1.1-2.4-1.3-4.8-1.3-4.9v-28.3c0-8.7,2-15.1,6-18.9c2.1-2,4.4-2.9,6.1-3.3c-4.7-0.2-6.7-1.3-7.6-2.1
	c-0.4-0.4-0.6-0.8-0.6-1c-9.6,0-12-3.6-12.3-4.2c-10.1,0-13.3-1.7-14.1-3.2c-0.5-0.8-0.2-1.6-0.1-1.7c0-1.7,0.5-2.9,1.5-3.7
	c1.8-1.4,4.5-0.8,4.6-0.8l-0.1,0.3c0,0-2.7-0.6-4.3,0.7c-0.9,0.7-1.4,1.9-1.4,3.5l0,0l0,0c0,0-0.4,0.7,0.1,1.5c1.5,2.6,9.4,3,13.9,3
	h0.1v0.1c0,0,0.5,1,2.2,2.1c1.6,0.9,4.6,2.1,10,2.1h0.2v0.2c0,0,0.2,3,9.9,3c0.1,0,0.2,0,0.2,0v0.3c-0.1,0-0.1,0-0.2,0
	c-0.9,0-4.6,0.3-7.9,3.5c-3.9,3.7-5.9,10-5.9,18.6v28.2c0,0,0.1,2.4,1.2,4.7c1.5,3.1,3.8,4.7,7,4.7c0,0,1.1-0.3,2.1,0.6
	c1.4,1.1,2.1,3.4,2.1,6.9v7c0,0.1-0.3,3.9,2.3,6.6c1.7,1.9,4.4,2.8,7.9,2.8c0,0,2.7-0.2,5.3-1.3c3.5-1.5,5.2-3.7,5.2-6.6v-15.2h0.3
	V367c0,3-1.9,5.4-5.4,6.9C-165.4,375.1-168.1,375.3-168.1,375.4L-168.1,375.4z"/>
<path class="st1" d="M-167.8,284.9c-4.8,0-8.8-3.9-8.8-8.8c0-4.9,3.9-8.8,8.8-8.8c4.8,0,8.8,3.9,8.8,8.8
	C-159,281-162.9,284.9-167.8,284.9z M-167.8,267.6c-4.7,0-8.5,3.8-8.5,8.5c0,4.7,3.8,8.5,8.5,8.5s8.5-3.8,8.5-8.5
	C-159.3,271.4-163.1,267.6-167.8,267.6z"/>
<circle class="st2" cx="-292.4" cy="247.1" r="1.5"/>
<circle class="st2" cx="-239.1" cy="283" r="1"/>
<circle class="st2" cx="-109.7" cy="380.2" r="1"/>
<circle class="st2" cx="-205.8" cy="300.9" r="1.4"/>
<circle class="st2" cx="-256" cy="359.2" r="1.4"/>
<circle class="st2" cx="-207.6" cy="274.7" r="1.4"/>
<circle class="st2" cx="-194.3" cy="263.2" r="1.1"/>
<circle class="st2" cx="-183.5" cy="250.3" r="1.3"/>
<circle class="st2" cx="-172.1" cy="216.3" r="1.8"/>
<circle class="st2" cx="-150.4" cy="251" r="0.7"/>
<circle class="st2" cx="-167.8" cy="261.8" r="1.4"/>
<circle class="st2" cx="-176.7" cy="291.2" r="1.4"/>
<circle class="st2" cx="-190.5" cy="313.4" r="1.2"/>
<circle class="st2" cx="-164.6" cy="308.7" r="1.3"/>
<circle class="st2" cx="-123.8" cy="320.3" r="1.2"/>
<circle class="st2" cx="-281.8" cy="240.5" r="1.2"/>
<circle class="st2" cx="-183.5" cy="339.7" r="1.3"/>
<circle class="st2" cx="-151.1" cy="331.6" r="0.9"/>
<circle class="st2" cx="-157.8" cy="351.9" r="1.3"/>
<circle class="st2" cx="-176.8" cy="371.7" r="0.9"/>
<circle class="st2" cx="-293.1" cy="375.1" r="1.1"/>
<circle class="st2" cx="-304.9" cy="350.9" r="0.8"/>
<circle class="st2" cx="-313.2" cy="334.8" r="0.9"/>
<circle class="st2" cx="-285.7" cy="339.1" r="1.7"/>
<circle class="st2" cx="-276.5" cy="340.1" r="1.2"/>
<circle class="st2" cx="-275.2" cy="314.8" r="1.5"/>
<circle class="st2" cx="-289.5" cy="312.1" r="0.6"/>
<circle class="st2" cx="-164.6" cy="289.5" r="1.5"/>
<g>
	<path id="SVGID_1_" class="st3" d="M-307.5,341.7v24.7c0,0,3.9,11.6,13.3,11.6c0,0,14.5,0.1,15-10.3v-24.3h83.5
		c0,0,2,11.5,11.5,11.5v12.8c0,0,0.3,12.5,17.2,12.5c0,0,14.2,0.7,14.2-12.8v-13.8c0,0,7.1-2,7.1-9.1c0,0,6.4-0.8,6.4-8.1v-31
		c0,0-0.4-11.1-9.8-15.5c0,0,13,0.9,13.2-3h11.5c0,0,5.5-0.6,6-6.3c0-0.3,0-0.5,0-0.8c0-6.5-4.7-7.4-7.4-7.4h-11.8V267
		c0,0,9.1-2.8,9.1-13.8c0,0-1.1-11.1-12.8-11.1c0,0-13.2-1-13.2,9.8c0,0,0.4,12.5,9.1,12.5v3.1c0,0-4.5-2.4-9.1-2.4
		c0,0-2.4-8.4-14.5-8.4c0,0-13.8-0.4-13.8,8.4c0,0-7.1,0.1-7.1,2v-4.4c0,0,10.1-3,10.1-11.8c0,0,0.1-10.5-14.2-10.5
		c0,0-13.2-1.4-13.2,13.5c0,0,1.6,13.2,9.1,13.2s0,0.7,0,0.7v3h-13.2c0,0-5.7,2.2-5.7,9.1c0,0,2.4,7.4,6.7,7.4h8.8
		c0,0,4.7,3.7,10.5,3.7c0,0-3.7,2.8-3.7,21.2v24.6h-6.7v-4.7c0,0,3-3.7,3-15.2c0,0-1.1-18.7-11.1-26.6c0,0-8.6-9.8-32.4-9.8
		c0,0-37.8-2-37.8,31.1h-7.5c0,0-1.3-2.1-7-2.1c0,0-21.9,0.4-21.9,18.8c0,0,0.1,7.1,1.3,9.1C-313.7,339.5-307.5,341.7-307.5,341.7z"
		/>
</g>
</svg>
