<?xml version="1.0" encoding="UTF-8" standalone="no"?>
<svg width="268px" height="181px" viewBox="0 0 268 181" version="1.1" xmlns="http://www.w3.org/2000/svg" xmlns:xlink="http://www.w3.org/1999/xlink" xmlns:sketch="http://www.bohemiancoding.com/sketch/ns">
    <!-- Generator: Sketch 3.3.2 (12043) - http://www.bohemiancoding.com/sketch -->
    <title>Group</title>
    <desc>Created with Sketch.</desc>
    <defs></defs>
    <g id="Page-2" stroke="none" stroke-width="1" fill="none" fill-rule="evenodd" sketch:type="MSPage">
        <g id="Artboard-21" sketch:type="MSArtboardGroup" transform="translate(-829.000000, -113.000000)">
            <g id="Group" sketch:type="MSLayerGroup" transform="translate(951.000000, 190.500000) rotate(-11.000000) translate(-951.000000, -190.500000) translate(816.000000, 101.000000)">
                <path d="M83.859198,163.21015 C83.859198,163.21015 121.494862,162.349826 140.231015,162.178359 C140.807988,162.173079 140.175025,162.180786 140.78541,162.178359 C160.111339,162.101505 196.602832,162.178359 196.602832,162.178359" id="Path-1172" stroke="#F4F2ED" stroke-width="0.952" stroke-linecap="round" stroke-linejoin="round" opacity="0.362873134" sketch:type="MSShapeGroup"></path>
                <path d="M197.127164,161.993706 L201.495332,152.937668" id="Path-1173" stroke="#F4F2ED" stroke-width="0.952" stroke-linecap="round" stroke-linejoin="round" opacity="0.362873134" sketch:type="MSShapeGroup"></path>
                <path d="M201.558526,152.883173 L194.001145,125.695405 L185.339797,119.590628 C185.339797,119.590628 167.338154,114.722632 157.598648,111.719134 C157.256063,111.613487 157.920072,111.049896 157.598648,110.95081 C147.894584,107.959341 128.120106,101.104153 128.120106,101.104153" id="Path-1174" stroke="#F4F2ED" stroke-width="0.952" stroke-linecap="round" stroke-linejoin="round" opacity="0.362873134" sketch:type="MSShapeGroup"></path>
                <path d="M35.2367495,95.4003908 L56.1518072,91.0753052 L53.4508332,107.146479" id="Path-1175" stroke="#F4F2ED" stroke-width="0.952" stroke-linecap="round" stroke-linejoin="round" opacity="0.362873134" sketch:type="MSShapeGroup"></path>
                <path d="M79.4634764,118.945927 L79.9950439,118.945927 L124.140411,113.923231 L129.685371,104.267534" id="Path-1176" stroke="#F4F2ED" stroke-width="0.952" stroke-linecap="round" stroke-linejoin="round" opacity="0.362873134" sketch:type="MSShapeGroup"></path>
                <path d="M0.894002388,146.732404 L8.72855626,146.732404 L13.9758279,126.389906 L35.1350223,110.698712 L54.0142257,106.849073 L79.0681147,118.942974 L87.2180432,137.064977 L86.2937918,145.932496 L84.6689806,161.242129 L84.6689806,161.823324" id="Path-1177" stroke="#F4F2ED" stroke-width="0.952" stroke-linecap="round" stroke-linejoin="round" opacity="0.362873134" sketch:type="MSShapeGroup"></path>
                <path d="M34.747834,110.63424 L9.03349781,110.63424 L6.23985737,126.410693 L13.8393273,126.410694" id="Path-1178" stroke="#F4F2ED" stroke-width="0.952" stroke-linecap="round" stroke-linejoin="round" opacity="0.362873134" sketch:type="MSShapeGroup"></path>
                <path d="M27.6619471,110.052984 L35.1068997,94.9958394" id="Path-1179" stroke="#F4F2ED" stroke-width="0.952" stroke-linecap="round" stroke-linejoin="round" opacity="0.362873134" sketch:type="MSShapeGroup"></path>
                <path d="M128.034557,100.560564 L121.444753,68.3602397 L124.373623,62.4470184 C124.373623,62.4470184 130.159192,72.8966017 136.264052,82.4349999 C137.942565,85.0575533 139.016489,88.7939134 141.581005,92.2752094 C148.343801,101.455614 157.713635,111.153994 157.713635,111.153994" id="Path-1180" stroke="#F4F2ED" stroke-width="0.952" stroke-linecap="round" stroke-linejoin="round" opacity="0.362873134" sketch:type="MSShapeGroup"></path>
                <path d="M136.691989,82.5342049 L167.314459,72.5368644 L178.590629,76.1848961 M186.371681,92.6128277 L170.094164,111.466029" id="Path-1181" stroke="#F4F2ED" stroke-width="0.952" stroke-linecap="round" stroke-linejoin="round" opacity="0.362873134" sketch:type="MSShapeGroup"></path>
                <path d="M199.818415,134.635992 L204.455905,121.634187 L227.064444,106.752901 L248.819015,105.653102 L265.921005,115.308799 L245.117137,129.340446 L232.274676,137.943632 L220.569129,150.085309 L201.556917,152.846343 L201.268101,152.846343" id="Path-1182" stroke="#F4F2ED" stroke-width="0.952" stroke-linecap="round" stroke-linejoin="round" opacity="0.362873134" sketch:type="MSShapeGroup"></path>
                <path d="M214.128033,110.489881 L182.539796,48.0321677 L172.149913,50.7286202 L163.702095,52.7913216 L165.265988,57.955773 C165.265988,57.955773 186.452723,55.0225187 186.452723,55.4624751 C186.452723,55.9024316 186.855002,56.2240272 186.855002,56.2240272 L195.418938,55.0225185 L205.930725,74.6724664" id="Path-1183" stroke="#F4F2ED" stroke-width="0.952" stroke-linecap="round" stroke-linejoin="round" opacity="0.362873134" sketch:type="MSShapeGroup"></path>
                <path d="M197.591117,76.3052194 L205.662435,74.1443154 L219.765592,100.314853 L226.682545,107.041938" id="Path-1184" stroke="#F4F2ED" stroke-width="0.952" stroke-linecap="round" stroke-linejoin="round" opacity="0.362873134" sketch:type="MSShapeGroup"></path>
                <path d="M194.34988,125.843055 L204.967399,92.6913938 M196.73743,76.3895839 L178.608428,75.729575 L186.482442,92.6913938 L185.254002,119.766856" id="Path-1185" stroke="#F4F2ED" stroke-width="0.952" stroke-linecap="round" stroke-linejoin="round" opacity="0.362873134" sketch:type="MSShapeGroup"></path>
                <path d="M220.648369,150.351916 L230.748509,163.072074 L248.153675,161.17748 L256.765374,147.121902 L250.724495,133.760824" id="Path-1186" stroke="#F4F2ED" stroke-width="0.952" stroke-linecap="round" stroke-linejoin="round" opacity="0.362873134" sketch:type="MSShapeGroup"></path>
                <path d="M256.887467,125.311403 L268.854676,142.414956 L267.451288,161.772375 L253.728815,174.300188 L239.167465,176.56161 L227.574081,175.338848 L219.473391,169.304038 L212.402264,163.139395 L212.402264,162.85971" id="Path-1187" stroke="#F4F2ED" stroke-width="0.952" stroke-linecap="round" stroke-linejoin="round" opacity="0.362873134" sketch:type="MSShapeGroup"></path>
                <path d="M64.3434628,135.05022 L69.7128279,151.848769 L63.5498558,161.007805 L47.4479339,166.805619 L37.3333891,160.044708 L33.984738,144.468921 L44.1754198,132.948856 L56.9716549,134.159167 L63.5498555,135.05022" id="Path-1188" stroke="#F4F2ED" stroke-width="0.952" stroke-linecap="round" stroke-linejoin="round" opacity="0.362873134" sketch:type="MSShapeGroup"></path>
                <path d="M42.3564702,123.717385 L33.2336188,130.744458 L22.0970955,140.399459 L21.7308153,152.49175 L29.7780038,170.42101 L54.3558128,178.29752 L75.0492689,168.839663 L79.0689055,153.130016 L79.9769023,148.060044 L72.3727663,132.470186 L66.9400355,127.153102 L60.9605159,122.286784 L55.1506525,122.634668 L42.3564702,123.717385 Z" id="Path-1189" stroke="#F4F2ED" stroke-width="0.952" stroke-linecap="round" stroke-linejoin="round" opacity="0.362873134" sketch:type="MSShapeGroup"></path>
                <ellipse id="Oval-497-Copy" stroke="#D8D6D3" stroke-width="0.5" fill="#FCFCFC" sketch:type="MSShapeGroup" cx="120.977113" cy="68.3151596" rx="0.713028169" ry="0.714095745"></ellipse>
                <ellipse id="Oval-497-Copy-5" stroke="#D8D6D3" stroke-width="0.5" fill="#FCFCFC" sketch:type="MSShapeGroup" cx="108.617958" cy="46.4162234" rx="0.713028169" ry="0.714095745"></ellipse>
                <ellipse id="Oval-497-Copy-9" stroke="#D8D6D3" stroke-width="0.5" fill="#FCFCFC" sketch:type="MSShapeGroup" cx="97.6848592" cy="94.4986702" rx="0.713028169" ry="0.714095745"></ellipse>
                <ellipse id="Oval-497-Copy-10" stroke="#D8D6D3" stroke-width="0.5" fill="#FCFCFC" sketch:type="MSShapeGroup" cx="74.8679577" cy="84.5013298" rx="0.713028169" ry="0.714095745"></ellipse>
                <ellipse id="Oval-497-Copy-12" stroke="#D8D6D3" stroke-width="0.5" fill="#FCFCFC" sketch:type="MSShapeGroup" cx="71.540493" cy="74.0279255" rx="0.713028169" ry="0.714095745"></ellipse>
                <ellipse id="Oval-497-Copy-16" stroke="#D8D6D3" stroke-width="0.5" fill="#FCFCFC" sketch:type="MSShapeGroup" cx="62.0334507" cy="60.6981383" rx="0.713028169" ry="0.714095745"></ellipse>
                <ellipse id="Oval-497-Copy-17" stroke="#D8D6D3" stroke-width="0.5" fill="#FCFCFC" sketch:type="MSShapeGroup" cx="88.1778169" cy="3.57047872" rx="0.713028169" ry="0.714095745"></ellipse>
                <ellipse id="Oval-497-Copy-6" stroke="#D8D6D3" stroke-width="0.5" fill="#FCFCFC" sketch:type="MSShapeGroup" cx="94.3573944" cy="29.7539894" rx="0.713028169" ry="0.714095745"></ellipse>
                <ellipse id="Oval-497-Copy-7" stroke="#D8D6D3" stroke-width="0.5" fill="#FCFCFC" sketch:type="MSShapeGroup" cx="95.3080986" cy="19.2805851" rx="0.713028169" ry="0.714095745"></ellipse>
                <ellipse id="Oval-497-Copy-8" stroke="#D8D6D3" stroke-width="0.5" fill="#FCFCFC" sketch:type="MSShapeGroup" cx="109.09331" cy="18.3284574" rx="0.713028169" ry="0.714095745"></ellipse>
                <ellipse id="Oval-497-Copy-31" stroke="#D8D6D3" stroke-width="0.5" fill="#FCFCFC" sketch:type="MSShapeGroup" cx="141.417254" cy="92.1183511" rx="0.713028169" ry="0.714095745"></ellipse>
                <ellipse id="Oval-497-Copy-2" stroke="#D8D6D3" stroke-width="0.5" fill="#FCFCFC" sketch:type="MSShapeGroup" cx="136.18838" cy="82.5970745" rx="0.713028169" ry="0.714095745"></ellipse>
                <ellipse id="Oval-497-Copy-3" stroke="#D8D6D3" stroke-width="0.5" fill="#FCFCFC" sketch:type="MSShapeGroup" cx="124.77993" cy="85.9295213" rx="0.713028169" ry="0.714095745"></ellipse>
                <ellipse id="Oval-497-Copy-4" stroke="#D8D6D3" stroke-width="0.5" fill="#FCFCFC" sketch:type="MSShapeGroup" cx="105.290493" cy="99.7353723" rx="0.713028169" ry="0.714095745"></ellipse>
                <ellipse id="Oval-497-Copy-33" stroke="#D8D6D3" stroke-width="0.5" fill="#FCFCFC" sketch:type="MSShapeGroup" cx="178.019366" cy="102.115691" rx="0.713028169" ry="0.714095745"></ellipse>
                <ellipse id="Oval-497-Copy-34" stroke="#D8D6D3" stroke-width="0.5" fill="#FCFCFC" sketch:type="MSShapeGroup" cx="167.56162" cy="72.599734" rx="0.713028169" ry="0.714095745"></ellipse>
                <ellipse id="Oval-497-Copy-35" stroke="#D8D6D3" stroke-width="0.5" fill="#FCFCFC" sketch:type="MSShapeGroup" cx="182.297535" cy="48.3204787" rx="0.713028169" ry="0.714095745"></ellipse>
                <ellipse id="Oval-497-Copy-36" stroke="#D8D6D3" stroke-width="0.5" fill="#FCFCFC" sketch:type="MSShapeGroup" cx="163.758803" cy="53.081117" rx="0.713028169" ry="0.714095745"></ellipse>
                <ellipse id="Oval-497-Copy-37" stroke="#D8D6D3" stroke-width="0.5" fill="#FCFCFC" sketch:type="MSShapeGroup" cx="186.575704" cy="55.4614362" rx="0.713028169" ry="0.714095745"></ellipse>
                <ellipse id="Oval-497-Copy-39" stroke="#D8D6D3" stroke-width="0.5" fill="#FCFCFC" sketch:type="MSShapeGroup" cx="206.065141" cy="74.5039894" rx="0.713028169" ry="0.714095745"></ellipse>
                <ellipse id="Oval-497-Copy-41" stroke="#D8D6D3" stroke-width="0.5" fill="#FCFCFC" sketch:type="MSShapeGroup" cx="219.375" cy="99.7353723" rx="0.713028169" ry="0.714095745"></ellipse>
                <path d="M205.114437,93.3085106 C205.508231,93.3085106 205.827465,92.9887991 205.827465,92.5944149 C205.827465,92.2000307 205.508231,91.8803191 205.114437,91.8803191 C204.720642,91.8803191 204.401408,92.2000307 204.401408,92.5944149 C204.401408,92.9887991 204.720642,93.3085106 205.114437,93.3085106 Z" id="Oval-497-Copy-42" stroke="#D8D6D3" stroke-width="0.5" fill="#FCFCFC" sketch:type="MSShapeGroup"></path>
                <ellipse id="Oval-497-Copy-43" stroke="#D8D6D3" stroke-width="0.5" fill="#FCFCFC" sketch:type="MSShapeGroup" cx="197.033451" cy="76.4082447" rx="0.713028169" ry="0.714095745"></ellipse>
                <ellipse id="Oval-497-Copy-44" stroke="#D8D6D3" stroke-width="0.5" fill="#FCFCFC" sketch:type="MSShapeGroup" cx="197.033451" cy="162.099734" rx="0.713028169" ry="0.714095745"></ellipse>
                <ellipse id="Oval-497-Copy-45" stroke="#D8D6D3" stroke-width="0.5" fill="#FCFCFC" sketch:type="MSShapeGroup" cx="230.308099" cy="162.575798" rx="0.713028169" ry="0.714095745"></ellipse>
                <ellipse id="Oval-497-Copy-47" stroke="#D8D6D3" stroke-width="0.5" fill="#FCFCFC" sketch:type="MSShapeGroup" cx="193.46831" cy="121.396277" rx="0.950704225" ry="0.95212766"></ellipse>
                <ellipse id="Oval-497-Copy-48" stroke="#D8D6D3" stroke-width="0.5" fill="#FCFCFC" sketch:type="MSShapeGroup" cx="213.908451" cy="110.446809" rx="0.950704225" ry="0.95212766"></ellipse>
                <ellipse id="Oval-497-Copy-49" stroke="#D8D6D3" stroke-width="0.5" fill="#FCFCFC" sketch:type="MSShapeGroup" cx="129.533451" cy="104.496011" rx="0.713028169" ry="0.714095745"></ellipse>
                <ellipse id="Oval-497-Copy-57" stroke="#D8D6D3" stroke-width="0.5" fill="#FCFCFC" sketch:type="MSShapeGroup" cx="0.713028169" cy="146.865691" rx="0.713028169" ry="0.714095745"></ellipse>
                <ellipse id="Oval-497-Copy-50" stroke="#D8D6D3" stroke-width="0.5" fill="#FCFCFC" sketch:type="MSShapeGroup" cx="124.304577" cy="114.017287" rx="0.713028169" ry="0.714095745"></ellipse>
                <ellipse id="Oval-497-Copy-55" stroke="#D8D6D3" stroke-width="0.5" fill="#FCFCFC" sketch:type="MSShapeGroup" cx="140.466549" cy="162.099734" rx="0.713028169" ry="0.714095745"></ellipse>
                <ellipse id="Oval-497-Copy-51" stroke="#D8D6D3" stroke-width="0.5" fill="#FCFCFC" sketch:type="MSShapeGroup" cx="34.9383803" cy="95.4507979" rx="0.713028169" ry="0.714095745"></ellipse>
                <ellipse id="Oval-497-Copy-56" stroke="#D8D6D3" stroke-width="0.5" fill="#FCFCFC" sketch:type="MSShapeGroup" cx="27.3327465" cy="110.208777" rx="0.713028169" ry="0.714095745"></ellipse>
                <ellipse id="Oval-497-Copy-24" stroke="#D8D6D3" stroke-width="0.5" fill="#FCFCFC" sketch:type="MSShapeGroup" cx="9.2693662" cy="110.68484" rx="0.713028169" ry="0.714095745"></ellipse>
                <ellipse id="Oval-497-Copy-25" stroke="#D8D6D3" stroke-width="0.5" fill="#FCFCFC" sketch:type="MSShapeGroup" cx="6.41725352" cy="126.394947" rx="0.713028169" ry="0.714095745"></ellipse>
                <ellipse id="Oval-497-Copy-11" stroke="#D8D6D3" stroke-width="0.5" fill="#FCFCFC" sketch:type="MSShapeGroup" cx="22.5792254" cy="140.200798" rx="0.713028169" ry="0.714095745"></ellipse>
                <ellipse id="Oval-497-Copy-52" stroke="#D8D6D3" stroke-width="0.5" fill="#FCFCFC" sketch:type="MSShapeGroup" cx="54.665493" cy="178.047872" rx="0.950704225" ry="0.95212766"></ellipse>
                <ellipse id="Oval-497-Copy-53" stroke="#D8D6D3" stroke-width="0.5" fill="#FCFCFC" sketch:type="MSShapeGroup" cx="75.1056338" cy="168.526596" rx="0.950704225" ry="0.95212766"></ellipse>
                <ellipse id="Oval-497-Copy-54" stroke="#D8D6D3" stroke-width="0.5" fill="#FCFCFC" sketch:type="MSShapeGroup" cx="79.8591549" cy="147.579787" rx="0.950704225" ry="0.95212766"></ellipse>
                <ellipse id="Oval-497-Copy-29" stroke="#D8D6D3" stroke-width="0.5" fill="#FCFCFC" sketch:type="MSShapeGroup" cx="63.9348592" cy="134.964096" rx="0.713028169" ry="0.714095745"></ellipse>
                <ellipse id="Oval-497-Copy-20" stroke="#D8D6D3" stroke-width="0.5" fill="#FCFCFC" sketch:type="MSShapeGroup" cx="72.0158451" cy="132.107713" rx="0.713028169" ry="0.714095745"></ellipse>
                <ellipse id="Oval-497-Copy-21" stroke="#D8D6D3" stroke-width="0.5" fill="#FCFCFC" sketch:type="MSShapeGroup" cx="61.0827465" cy="122.586436" rx="0.713028169" ry="0.714095745"></ellipse>
                <ellipse id="Oval-497-Copy-28" stroke="#D8D6D3" stroke-width="0.5" fill="#FCFCFC" sketch:type="MSShapeGroup" cx="42.068662" cy="124.014628" rx="0.713028169" ry="0.714095745"></ellipse>
                <ellipse id="Oval-497-Copy-30" stroke="#D8D6D3" stroke-width="0.5" fill="#FCFCFC" sketch:type="MSShapeGroup" cx="69.6390845" cy="151.62633" rx="0.713028169" ry="0.714095745"></ellipse>
                <ellipse id="Oval-497-Copy-22" stroke="#D8D6D3" stroke-width="0.5" fill="#FCFCFC" sketch:type="MSShapeGroup" cx="37.3151408" cy="160.195479" rx="0.713028169" ry="0.714095745"></ellipse>
                <ellipse id="Oval-497-Copy-23" stroke="#D8D6D3" stroke-width="0.5" fill="#FCFCFC" sketch:type="MSShapeGroup" cx="21.6285211" cy="152.578457" rx="0.713028169" ry="0.714095745"></ellipse>
                <ellipse id="Oval-497-Copy-27" stroke="#D8D6D3" stroke-width="0.5" fill="#FCFCFC" sketch:type="MSShapeGroup" cx="43.9700704" cy="132.583777" rx="0.713028169" ry="0.714095745"></ellipse>
                <ellipse id="Oval-497-Copy-13" stroke="#D8D6D3" stroke-width="0.5" fill="#FCFCFC" sketch:type="MSShapeGroup" cx="63.9348592" cy="160.671543" rx="0.713028169" ry="0.714095745"></ellipse>
                <ellipse id="Oval-497-Copy-14" stroke="#D8D6D3" stroke-width="0.5" fill="#FCFCFC" sketch:type="MSShapeGroup" cx="87.2271127" cy="137.344415" rx="0.713028169" ry="0.714095745"></ellipse>
                <ellipse id="Oval-497-Copy-15" stroke="#D8D6D3" stroke-width="0.5" fill="#FCFCFC" sketch:type="MSShapeGroup" cx="79.6214789" cy="118.777926" rx="0.713028169" ry="0.714095745"></ellipse>
                <ellipse id="Oval-471-Copy" stroke="#D8D6D3" stroke-width="0.5" fill="#FCFCFC" sketch:type="MSShapeGroup" cx="194.894366" cy="55.2234043" rx="0.950704225" ry="0.95212766"></ellipse>
                <ellipse id="Oval-485" stroke="#D8D6D3" stroke-width="0.5" fill="#FCFCFC" sketch:type="MSShapeGroup" cx="165.660211" cy="57.3656915" rx="1.18838028" ry="1.19015957"></ellipse>
                <ellipse id="Oval-485-Copy-2" stroke="#D8D6D3" stroke-width="0.5" fill="#FCFCFC" sketch:type="MSShapeGroup" cx="75.818662" cy="28.8018617" rx="1.18838028" ry="1.19015957"></ellipse>
                <ellipse id="Oval-485-Copy-3" stroke="#D8D6D3" stroke-width="0.5" fill="#FCFCFC" sketch:type="MSShapeGroup" cx="56.8045775" cy="91.1662234" rx="1.18838028" ry="1.19015957"></ellipse>
                <ellipse id="Oval-485-Copy-4" stroke="#D8D6D3" stroke-width="0.5" fill="#FCFCFC" sketch:type="MSShapeGroup" cx="84.8503521" cy="67.8390957" rx="1.18838028" ry="1.19015957"></ellipse>
                <ellipse id="Oval-485-Copy" stroke="#D8D6D3" stroke-width="0.5" fill="#FCFCFC" sketch:type="MSShapeGroup" cx="124.77993" cy="62.6023936" rx="1.18838028" ry="1.19015957"></ellipse>
                <ellipse id="Oval-485-Copy-8" stroke="#D8D6D3" stroke-width="0.5" fill="#FCFCFC" sketch:type="MSShapeGroup" cx="127.632042" cy="100.211436" rx="1.18838028" ry="1.19015957"></ellipse>
                <ellipse id="Oval-485-Copy-9" stroke="#D8D6D3" stroke-width="0.5" fill="#FCFCFC" sketch:type="MSShapeGroup" cx="178.494718" cy="75.456117" rx="1.18838028" ry="1.19015957"></ellipse>
                <ellipse id="Oval-485-Copy-10" stroke="#D8D6D3" stroke-width="0.5" fill="#FCFCFC" sketch:type="MSShapeGroup" cx="186.100352" cy="93.0704787" rx="1.18838028" ry="1.19015957"></ellipse>
                <ellipse id="Oval-485-Copy-11" stroke="#D8D6D3" stroke-width="0.5" fill="#FCFCFC" sketch:type="MSShapeGroup" cx="256.927817" cy="125.442819" rx="1.18838028" ry="1.19015957"></ellipse>
                <ellipse id="Oval-485-Copy-6" stroke="#D8D6D3" stroke-width="0.5" fill="#FCFCFC" sketch:type="MSShapeGroup" cx="256.690141" cy="148.055851" rx="0.950704225" ry="0.95212766"></ellipse>
                <ellipse id="Oval-485-Copy-20" stroke="#D8D6D3" stroke-width="0.5" fill="#FCFCFC" sketch:type="MSShapeGroup" cx="248.609155" cy="105.68617" rx="0.950704225" ry="0.95212766"></ellipse>
                <ellipse id="Oval-485-Copy-21" stroke="#D8D6D3" stroke-width="0.5" fill="#FCFCFC" sketch:type="MSShapeGroup" cx="200.123239" cy="134.25" rx="0.950704225" ry="0.95212766"></ellipse>
                <ellipse id="Oval-485-Copy-12" stroke="#D8D6D3" stroke-width="0.5" fill="#FCFCFC" sketch:type="MSShapeGroup" cx="250.510563" cy="133.773936" rx="0.950704225" ry="0.95212766"></ellipse>
                <ellipse id="Oval-485-Copy-13" stroke="#D8D6D3" stroke-width="0.5" fill="#FCFCFC" sketch:type="MSShapeGroup" cx="267.623239" cy="161.385638" rx="0.950704225" ry="0.95212766"></ellipse>
                <ellipse id="Oval-485-Copy-14" stroke="#D8D6D3" stroke-width="0.5" fill="#FCFCFC" sketch:type="MSShapeGroup" cx="269.049296" cy="142.343085" rx="0.950704225" ry="0.95212766"></ellipse>
                <ellipse id="Oval-485-Copy-15" stroke="#D8D6D3" stroke-width="0.5" fill="#FCFCFC" sketch:type="MSShapeGroup" cx="231.496479" cy="138.534574" rx="0.950704225" ry="0.95212766"></ellipse>
                <ellipse id="Oval-485-Copy-17" stroke="#D8D6D3" stroke-width="0.5" fill="#FCFCFC" sketch:type="MSShapeGroup" cx="201.549296" cy="152.816489" rx="0.950704225" ry="0.95212766"></ellipse>
                <ellipse id="Oval-485-Copy-23" stroke="#D8D6D3" stroke-width="0.5" fill="#FCFCFC" sketch:type="MSShapeGroup" cx="220.56338" cy="149.960106" rx="0.950704225" ry="0.95212766"></ellipse>
                <ellipse id="Oval-485-Copy-28" stroke="#D8D6D3" stroke-width="0.5" fill="#FCFCFC" sketch:type="MSShapeGroup" cx="212.244718" cy="163.051862" rx="0.713028169" ry="0.714095745"></ellipse>
                <ellipse id="Oval-485-Copy-31" stroke="#D8D6D3" stroke-width="0.5" fill="#FCFCFC" sketch:type="MSShapeGroup" cx="247.896127" cy="161.147606" rx="0.713028169" ry="0.714095745"></ellipse>
                <ellipse id="Oval-485-Copy-34" stroke="#D8D6D3" stroke-width="0.5" fill="#FCFCFC" sketch:type="MSShapeGroup" cx="194.181338" cy="125.918883" rx="0.713028169" ry="0.714095745"></ellipse>
                <ellipse id="Oval-485-Copy-35" stroke="#D8D6D3" stroke-width="0.5" fill="#FCFCFC" sketch:type="MSShapeGroup" cx="185.149648" cy="119.730053" rx="0.713028169" ry="0.714095745"></ellipse>
                <ellipse id="Oval-485-Copy-36" stroke="#D8D6D3" stroke-width="0.5" fill="#FCFCFC" sketch:type="MSShapeGroup" cx="169.93838" cy="111.636968" rx="0.713028169" ry="0.714095745"></ellipse>
                <ellipse id="Oval-485-Copy-37" stroke="#D8D6D3" stroke-width="0.5" fill="#FCFCFC" sketch:type="MSShapeGroup" cx="157.579225" cy="111.160904" rx="0.713028169" ry="0.714095745"></ellipse>
                <ellipse id="Oval-485-Copy-26" stroke="#D8D6D3" stroke-width="0.5" fill="#FCFCFC" sketch:type="MSShapeGroup" cx="227.455986" cy="175.429521" rx="1.18838028" ry="1.19015957"></ellipse>
                <ellipse id="Oval-485-Copy-24" stroke="#D8D6D3" stroke-width="0.5" fill="#FCFCFC" sketch:type="MSShapeGroup" cx="226.742958" cy="107.114362" rx="0.950704225" ry="0.95212766"></ellipse>
                <ellipse id="Oval-485-Copy-25" stroke="#D8D6D3" stroke-width="0.5" fill="#FCFCFC" sketch:type="MSShapeGroup" cx="266.197183" cy="115.207447" rx="0.950704225" ry="0.95212766"></ellipse>
                <ellipse id="Oval-485-Copy-19" stroke="#D8D6D3" stroke-width="0.5" fill="#FCFCFC" sketch:type="MSShapeGroup" cx="204.401408" cy="121.396277" rx="0.950704225" ry="0.95212766"></ellipse>
                <ellipse id="Oval-492-Copy" stroke="#D8D6D3" stroke-width="0.5" fill="#FCFCFC" sketch:type="MSShapeGroup" cx="8.79401408" cy="146.865691" rx="1.18838028" ry="1.19015957"></ellipse>
                <ellipse id="Oval-492-Copy-2" stroke="#D8D6D3" stroke-width="0.5" fill="#FCFCFC" sketch:type="MSShapeGroup" cx="14.0228873" cy="126.394947" rx="1.18838028" ry="1.19015957"></ellipse>
                <ellipse id="Oval-492-Copy-3" stroke="#D8D6D3" stroke-width="0.5" fill="#FCFCFC" sketch:type="MSShapeGroup" cx="35.1760563" cy="110.922872" rx="0.950704225" ry="0.95212766"></ellipse>
                <ellipse id="Oval-492-Copy-4" stroke="#D8D6D3" stroke-width="0.5" fill="#FCFCFC" sketch:type="MSShapeGroup" cx="53.7147887" cy="107.114362" rx="0.950704225" ry="0.95212766"></ellipse>
                <ellipse id="Oval-472" stroke="#D8D6D3" stroke-width="0.5" fill="#FCFCFC" sketch:type="MSShapeGroup" cx="84.8503521" cy="163.051862" rx="1.18838028" ry="1.19015957"></ellipse>
                <ellipse id="Oval-480" stroke="#D8D6D3" stroke-width="0.5" fill="#FCFCFC" sketch:type="MSShapeGroup" cx="54.1901408" cy="49.0345745" rx="0.950704225" ry="0.95212766"></ellipse>
                <ellipse id="Oval-473-Copy-6" stroke="#D8D6D3" stroke-width="0.5" fill="#FCFCFC" sketch:type="MSShapeGroup" cx="29.9471831" cy="169.954787" rx="1.42605634" ry="1.42819149"></ellipse>
                <ellipse id="Oval-473-Copy-3" stroke="#D8D6D3" stroke-width="0.5" fill="#FCFCFC" sketch:type="MSShapeGroup" cx="47.7728873" cy="166.384309" rx="1.66373239" ry="1.6662234"></ellipse>
                <ellipse id="Oval-473-Copy-4" stroke="#D8D6D3" stroke-width="0.5" fill="#FCFCFC" sketch:type="MSShapeGroup" cx="34.4630282" cy="144.485372" rx="1.18838028" ry="1.19015957"></ellipse>
                <ellipse id="Oval-473-Copy-5" stroke="#D8D6D3" stroke-width="0.5" fill="#FCFCFC" sketch:type="MSShapeGroup" cx="254.075704" cy="173.525266" rx="1.66373239" ry="1.6662234"></ellipse>
                <path d="M101.029588,90.2998519 L60.4162349,94.8515907 C60.4162349,94.8515907 55.5292821,89.9684867 53.687218,86.8451049 C52.7537454,85.2623201 52.0896248,80.7330909 52.0896248,80.7330909 C52.0896248,80.7330909 51.2167001,76.9668197 51.4782917,74.9166447 C51.709472,73.1048124 53.5679406,69.1470689 53.5679406,69.1470689 C53.5679406,69.1470689 55.262779,66.3378353 56.5298707,65.2363015 C58.2776437,63.716892 62.6125346,61.284239 62.6125346,61.284239 C62.6125346,61.284239 66.1930274,60.1153246 68.1019191,59.9120295 C69.6381855,59.7484187 72.9480091,60.1835214 72.9480091,60.1835214 C72.9480091,60.1835214 76.936065,61.6212903 78.9735077,62.8773801 C80.3034591,63.6972993 83.0501915,66.4115484 83.0501915,66.4115484 L70.8447758,74.9081168 L76.4990914,84.9996714 L91.0854875,83.5102261 L93.0053913,83.486627 C93.0053913,83.486627 94.9035451,83.3740167 95.8983996,84.5007717 C96.8932541,85.6275267 101.029588,90.2998519 101.029588,90.2998519 Z" id="Path-397" stroke="#F4F2ED" stroke-width="0.952" stroke-linecap="round" stroke-linejoin="round" opacity="0.368178638" sketch:type="MSShapeGroup" transform="translate(76.228408, 77.365114) rotate(11.000000) translate(-76.228408, -77.365114) "></path>
                <path d="M113.226942,42.6816033 L77.7462572,32.0998959 C77.7462572,32.0998959 75.2978113,26.0466463 74.8486417,22.6489128 C74.6210233,20.9270993 75.7158933,16.7412548 75.7158933,16.7412548 C75.7158933,16.7412548 76.3473308,13.1420964 77.3320686,11.4549836 C78.2023259,9.96400586 81.2808784,7.20698331 81.2808784,7.20698331 C81.2808784,7.20698331 83.7929144,5.38877278 85.3021307,4.8983478 C87.3838801,4.22187623 92.0537755,3.70629367 92.0537755,3.70629367 C92.0537755,3.70629367 95.6006117,4.01160103 97.3364892,4.53969503 C98.7335148,4.96470244 101.452485,6.56559788 101.452485,6.56559788 C101.452485,6.56559788 104.391247,9.28932237 105.700007,11.1346044 C106.554307,12.3391221 107.941664,15.714997 107.941664,15.714997 L94.1847028,18.5997461 L95.3772615,29.4679133 L108.617974,33.5589075 L110.297069,34.2474098 C110.297069,34.2474098 111.990114,34.8504369 112.439552,36.1981581 C112.888989,37.5458794 113.226942,42.6816033 113.226942,42.6816033 Z" id="Path-397-Copy" stroke="#F4F2ED" stroke-width="0.952" stroke-linecap="round" stroke-linejoin="round" opacity="0.368178638" sketch:type="MSShapeGroup" transform="translate(94.027275, 23.196578) rotate(11.000000) translate(-94.027275, -23.196578) "></path>
                <path d="M74.4805878,27.9661143 C74.4805878,27.9661143 67.1918954,31.9753882 62.4688669,37.4434086 C60.0057785,40.2950148 54.1589498,48.3492896 54.1589498,48.3492896 C54.1589498,48.3492896 52.1489412,52.3974486 51.6448621,53.9492215 C51.0873127,55.6655992 48.1966835,59.8176019 46.4154239,65.2590893 C42.7979789,76.3098543 36.8697235,93.6130161 36.2763826,95.4152299" id="Path-399" stroke="#F4F2ED" stroke-width="0.952" opacity="0.368178638" sketch:type="MSShapeGroup" transform="translate(55.378126, 61.690629) rotate(2.000000) translate(-55.378126, -61.690629) "></path>
                <path d="M98.043765,95.0410661 L116.856723,109.741522 L124.201098,113.988904" id="Path-1458" stroke="#F4F2ED" stroke-width="0.952" stroke-linecap="round" stroke-linejoin="round" opacity="0.357684235" sketch:type="MSShapeGroup"></path>
                <path d="M108.459918,46.7467034 L125.215907,62.1762843 L163.183854,52.6473355 L165.633602,58.6786122 L136.920359,82.0540893 M125.761469,88.1941823 C118.913505,91.9622216 105.217577,99.4983003 105.217577,99.4983003" id="Path-1459" stroke="#F4F2ED" stroke-width="0.952" stroke-linecap="round" stroke-linejoin="round" opacity="0.357684235" sketch:type="MSShapeGroup"></path>
            </g>
        </g>
    </g>
</svg>