<?xml version="1.0" encoding="utf-8"?>
<svg
	version="1.1"
	xmlns="http://www.w3.org/2000/svg"
	xmlns:xlink="http://www.w3.org/1999/xlink"
	viewBox="0 0 400 66.947"
	style="fill: #f4f2ed;"
>
<g>
	<path id="XMLID_50_" fill="#FFFFFF" d="M0,33.306C0,15.139,13.793,0,33.305,0C44.407,0,51.472,3.028,58.2,8.747l-7.065,8.41
	c-5.046-4.373-9.756-7.064-18.167-7.064c-11.774,0-20.858,10.429-20.858,22.876c0,13.121,8.747,23.212,21.867,23.212
	c6.056,0,11.775-2.018,15.475-5.045V39.025H32.969v-9.42h27.586v27.25c-6.392,5.383-15.475,10.092-26.914,10.092
	C13.12,66.611,0,52.145,0,33.306z"/>
<path id="XMLID_48_" fill="#FFFFFF" d="M87.468,1.009h10.766v64.592H87.468V1.009z"/>
<path id="XMLID_46_" fill="#FFFFFF" d="M141.295,11.775h-16.148V1.009h48.444v10.766h-21.531v53.827h-10.765V11.775z"/>
<path id="XMLID_40_" fill="#FFFFFF" d="M211.27,11.775h-16.147V1.009h48.444v10.766h-21.531v53.827H211.27V11.775z"/>
<path id="XMLID_8_" fill="#FFFFFF" d="M270.479,1.009h48.444v10.766h-37.68v16.148h32.297v10.765h-32.297v16.148h37.68v10.766
	h-48.444V1.009z"/>
<path id="XMLID_2_" fill="#FFFFFF" d="M400,65.602l-17.157-24.223c7.064-3.363,11.774-10.428,11.774-18.839
	c0-12.784-10.429-21.531-23.213-21.531h-25.23v64.592h10.765V44.07h14.466l15.476,21.531H400z M356.602,33.306V11.775h14.467
	c6.729,0,12.447,4.037,12.447,10.765c0,6.729-5.719,10.766-12.447,10.766H356.602z"/>
</g>
</svg>
