<?xml version="1.0" encoding="utf-8"?>
<svg
	version="1.1"
	xmlns="http://www.w3.org/2000/svg"
	xmlns:xlink="http://www.w3.org/1999/xlink"
	width="399.723px"
	height="66.065px"
	viewBox="-216.022 475.967 399.723 66.065"
	style="fill: #f4f2ed;"
>
<g>
	<path d="M-131.359,477.078h10.548v63.844h-10.548V477.078z"/>
	<path d="M-75.287,487.626h-16.1v-10.548h48.022v10.548h-21.375v53.296h-10.826v-53.296H-75.287z"/>
	<path d="M-5.891,487.626h-16.1v-10.548h48.022v10.548H4.658v53.296H-6.168v-53.296H-5.891z"/>
	<path d="M52.68,477.078h48.022v10.825H63.506v15.822h31.922v10.549H63.506v16.1h37.196v10.548
		H52.68V477.078L52.68,477.078z"/>
	<path d="M183.7,540.922l-17.21-23.872c6.939-3.608,11.381-10.271,11.381-18.598
		c0-12.77-10.271-21.374-23.04-21.374h-24.982v63.844h10.826v-21.374h14.435l15.267,21.374H183.7L183.7,540.922z M140.674,509
		v-21.374h14.435c6.662,0,12.213,3.886,12.213,10.548s-5.551,10.549-12.213,10.549L140.674,509z"/>
	<path d="M-184.378,504.559v10.826h16.1c0,0,0,5.552,0,9.16c-0.277,0.832-1.666,7.217-15.545,7.217
		c-0.555,0-1.388,0-1.943,0c-0.277,0-0.555,0-0.833,0c-0.277,0-0.555,0-0.833-0.277c-0.555,0-0.833-0.277-1.388-0.277
		c-0.277,0-0.555-0.277-0.833-0.277s-0.278,0-0.555-0.278c-8.605-3.054-14.157-11.104-14.157-21.651l0,0l0,0l0,0
		c0-1.11,0-1.943,0.277-3.054c1.388-11.104,9.716-19.708,20.542-19.708c3.331,0,9.993,1.388,14.712,6.106l6.107-8.883
		c0,0-4.997-7.495-20.264-7.495c-18.043,0-31.089,13.324-32.755,29.702c0,1.11-0.277,2.221-0.277,3.331l0,0l0,0
		c0,17.21,12.769,31.922,31.089,33.032c0.555,0,1.388,0,1.943,0c0.277,0,0.277,0,0.277,0c1.11,0,1.943,0,3.054-0.277
		c0.277,0,0.833,0,1.11,0c0.555,0,1.388-0.277,1.943-0.277c10.826-0.556,18.876-9.438,18.876-13.88c0-19.985,0-23.039,0-23.039
		H-184.378L-184.378,504.559z"/>
</g>
</svg>
