<?xml version="1.0" encoding="utf-8"?>
<!-- Generator: Adobe Illustrator 16.0.0, SVG Export Plug-In . SVG Version: 6.00 Build 0)  -->
<!DOCTYPE svg PUBLIC "-//W3C//DTD SVG 1.1//EN" "http://www.w3.org/Graphics/SVG/1.1/DTD/svg11.dtd">
<svg version="1.1" id="Layer_1" xmlns="http://www.w3.org/2000/svg" xmlns:xlink="http://www.w3.org/1999/xlink" x="0px" y="0px"
	 width="348.93px" height="43.336px" viewBox="25.518 3.196 348.93 43.336" enable-background="new 25.518 3.196 348.93 43.336"
	 xml:space="preserve">
<g>
	<path fill="#F6F5F1" d="M27.097,39.218c1.885,0.306,1.528,2.801,3.569,3.11c3.314,0.56,4.075-1.786,4.537-4.537
		c0.917-5.759-1.885-10.092-4.944-14.88c-1.426-2.241-2.19-4.177-1.731-7.033c0.713-4.027,2.652-6.778,6.879-6.778
		c0.356,0,0.713,0,1.121,0.051c1.375,0.153,2.343,0.461,2.088,1.888c-0.458,2.496-5.861-1.735-7.032,5.399
		c-0.561,3.26,0.764,4.584,2.496,7.542c2.703,4.689,5.046,8.866,4.129,14.371c-0.713,4.18-2.448,6.625-6.574,6.625
		c-0.407,0-0.815,0-1.223-0.051c-1.783-0.306-4.893-2.038-4.893-4.129c0-0.102,0.051-0.255,0.051-0.357
		C25.623,39.829,26.384,39.218,27.097,39.218z"/>
	<path fill="#F6F5F1" d="M49.764,9.356c0-0.917,0.866-1.786,1.783-1.786h8.051c0.306,0,1.324,0.764,1.375,1.019
		c0.051,0.102,0.051,0.153,0.051,0.254c0,1.019-1.375,1.478-2.19,1.478h-6.116l0.255,16.917l5.504-0.815h0.254
		c2.394,0,1.478,2.343-0.56,2.649l-5.097,0.764l-0.153,13.301c0.461,0.051,2.19,0.051,2.652,0.051c3.413,0,5.912-1.171,6.064,1.171
		c0.102,1.732-11.311,1.528-11.311,0.563L49.764,9.356z"/>
	<path fill="#F6F5F1" d="M72.787,9.356c0-0.917,0.866-1.786,1.783-1.786h8.051c0.306,0,1.324,0.764,1.375,1.019
		c0.051,0.102,0.051,0.153,0.051,0.254c0,1.019-1.375,1.478-2.19,1.478h-6.116l0.255,16.917l5.504-0.815h0.254
		c2.394,0,1.478,2.343-0.56,2.649l-5.097,0.764l-0.153,13.301c0.458,0.051,2.19,0.051,2.648,0.051c3.413,0,5.912-1.171,6.065,1.171
		c0.102,1.732-11.312,1.528-11.312,0.563L72.787,9.356z"/>
	<path fill="#F6F5F1" d="M118.478,7.777c0.356-1.019,0.611-1.07,1.681-1.07c1.477,0,1.477,0.663,1.477,2.14
		c0,0.153-0.051,0.815-0.051,0.917l-1.528,34.853c-0.102,2.241-2.954,2.448-2.954,0.971L118.478,7.777z"/>
	<path fill="#F6F5F1" d="M135.035,8.592c-3.162,0.204-4.584,0.153-4.689-0.713c0.102-1.735,0.102-2.343,5.402-2.041h4.282
		c1.121,0.051,3.005,0.2,3.005,1.681c0,0.458-0.56,0.968-1.019,0.968h-4.282l0.968,32.357c0,0.462-1.019,0.716-1.325,0.716
		s-1.324-0.254-1.324-0.716L135.035,8.592z"/>
	<path fill="#F6F5F1" d="M176.8,7.777c0.356-1.019,0.611-1.07,1.681-1.07c1.477,0,1.477,0.663,1.477,2.14
		c0,0.153-0.051,0.815-0.051,0.917l-1.528,34.853c-0.102,2.241-2.954,2.448-2.954,0.971L176.8,7.777z"/>
	<path fill="#F6F5F1" d="M191.67,9.051c-0.102-2.038,2.703-3.257,3.772-0.306l10.397,28.181c0.051-2.241,0.459-14.778,0.765-19.77
		c0.153-3.06-0.052-6.17,0.61-9.022c0-0.56,0.561-0.56,1.325-0.56c1.222,0.054,1.324,0.102,1.273,1.226
		c-0.153,5.297-0.921,10.598-1.124,15.896c-0.102,2.958-0.611,17.07-0.611,20.028c-0.356,1.069-1.936,0.458-2.343-0.408
		c-0.51-1.07-0.917-2.088-11.722-30.982l-0.356,31.288c0,1.528-2.598,1.378-2.598,0.309L191.67,9.051z"/>
	<path fill="#F6F5F1" d="M246.074,35.449l-0.307,0.306l-0.865,5.759c-0.102,0.764-0.055,2.958-1.528,2.958
		c-0.662,0-1.124-1.325-1.124-1.834c5.301-36.942,5.355-37.047,5.355-37.047c0.254-0.968,0.607-2.394,1.885-2.394
		c0.561,0,1.273,0.255,1.578,0.761l0.408,1.073c2.957,11.668,4.33,23.645,5.708,35.668l0.309,3.311c0,0.054-0.054,0.054-0.054,0.102
		c-0.357,0.971-0.564,1.378-1.528,1.378h-0.153c-0.305,0-0.814,0-0.862-0.356l-1.273-9.681h-7.548V35.449z M246.838,32.291
		l6.367,0.153l-3.412-23.8L246.838,32.291z"/>
	<path fill="#F6F5F1" d="M280.867,7.828c0,1.786-2.958,1.426-3.668,1.426h-0.309c-4.943,0-7.131,10.245-7.131,16
		c0,6.523,0.407,11.159,4.89,14.88c2.19,1.834,5.556-0.054,6.319,1.325c1.019,1.786-0.865,2.394-2.499,2.394
		c-11.565-0.255-13.349-15.59-11.005-25.529c1.225-5.301,4.383-12.384,11.005-12.384C279.543,5.944,280.867,6.657,280.867,7.828z"/>
	<path fill="#F6F5F1" d="M295.432,8.592c-3.161,0.204-4.588,0.153-4.689-0.713c0.099-1.735,0.099-2.343,5.399-2.041h4.282
		c1.12,0.051,3.005,0.2,3.005,1.681c0,0.458-0.563,0.968-1.019,0.968h-4.282l0.972,32.357c0,0.462-1.02,0.716-1.324,0.716
		c-0.31,0-1.325-0.254-1.325-0.716L295.432,8.592z"/>
	<path fill="#F6F5F1" d="M314.329,7.777c0.354-1.019,0.608-1.07,1.678-1.07c1.48,0,1.48,0.663,1.48,2.14
		c0,0.153-0.052,0.815-0.052,0.917l-1.527,34.853c-0.102,2.241-2.957,2.448-2.957,0.971L314.329,7.777z"/>
	<path fill="#F6F5F1" d="M336.891,5.38c9.121,1.019,7.797,22.73,7.287,29.508c-0.354,3.718-2.238,10.19-7.338,10.19
		c-9.02,0-9.426-15.389-9.426-21.352C327.416,17.255,327.875,5.38,336.891,5.38z M330.32,23.523c0,14.931,2.754,19.009,6.37,19.009
		c4.995,0,5.046-12.941,5.046-16.153v-0.204c0-3.922-1.07-18.194-5.912-18.194c-3.82,0-5.453,8.513-5.453,11.06
		C330.32,20.671,330.32,22.094,330.32,23.523z"/>
	<path fill="#F6F5F1" d="M356.298,9.051c-0.103-2.038,2.7-3.257,3.77-0.306l10.397,28.181c0.051-2.241,0.461-14.778,0.764-19.77
		c0.156-3.06-0.051-6.17,0.611-9.022c0-0.56,0.561-0.56,1.324-0.56c1.223,0.054,1.324,0.102,1.273,1.226
		c-0.152,5.297-0.916,10.598-1.123,15.896c-0.1,2.958-0.608,17.07-0.608,20.028c-0.356,1.069-1.938,0.458-2.343-0.408
		c-0.51-1.07-0.92-2.088-11.723-30.982l-0.356,31.288c0,1.528-2.598,1.378-2.598,0.309L356.298,9.051z"/>
</g>
</svg>
